<svg height="512" viewBox="0 0 510.222 510.222" width="512" xmlns="http://www.w3.org/2000/svg"><path d="M406.478 62.747c-83.658-83.658-219.067-83.667-302.734 0-83.656 83.655-83.669 219.067 0 302.734l140.054 140.054c6.249 6.249 16.379 6.248 22.627 0l140.054-140.054c83.655-83.655 83.668-219.066-.001-302.734zm-22.627 280.108l-128.74 128.74-128.74-128.74c-70.987-70.987-70.987-186.493 0-257.48 70.988-70.986 186.49-70.988 257.48 0 70.987 70.986 70.987 186.492 0 257.48z"/><path d="M255.111 118.42c-52.888 0-95.695 42.798-95.695 95.694 0 52.887 42.8 95.694 95.695 95.694 52.889 0 95.695-42.8 95.695-95.694 0-52.887-42.799-95.694-95.695-95.694zm45.039 140.733c-.613 0-15.694 18.655-45.039 18.655-35.203 0-63.695-28.487-63.695-63.694 0-35.202 28.488-63.694 63.695-63.694 57.185 0 84.671 69.102 45.039 108.733z"/></svg>