<svg width="94" height="30" fill="none" xmlns="http://www.w3.org/2000/svg"><path d="M28.928 25.356l-.627-1.183h-.185l.714 1.327-.064.119a.841.841 0 01-.147.216.238.238 0 01-.166.058.323.323 0 01-.255-.137l-.085.117a.399.399 0 00.346.163.373.373 0 00.253-.082.91.91 0 00.195-.261l.824-1.52h-.181l-.622 1.183zM30 26.002h.156v-1.686h1.162v1.686h.16v-1.829H30v1.83zM32.618 24.173h-.685v1.83h.157v-.76h.53a.536.536 0 100-1.07h-.002zm.276.818a.397.397 0 01-.294.109h-.513v-.781h.513a.401.401 0 01.294.11.412.412 0 010 .565v-.003zM34.063 24.173l-.75 1.83h.18l.182-.45h.97l.18.45h.183l-.75-1.83h-.195zm-.336 1.238l.432-1.07.434 1.07h-.866zM36.213 25.059a.392.392 0 00.227-.14.42.42 0 00.097-.279.445.445 0 00-.137-.34.524.524 0 00-.368-.127h-.752v1.83h.768c.141.008.28-.04.385-.133a.472.472 0 00.14-.36.458.458 0 00-.106-.294.391.391 0 00-.254-.157zm-.783-.743h.577a.356.356 0 01.265.097.337.337 0 01.098.244.33.33 0 01-.22.318.357.357 0 01-.143.021h-.577v-.68zm.87 1.447a.391.391 0 01-.282.098h-.587v-.728h.587a.372.372 0 01.283.106.358.358 0 01.097.256.35.35 0 01-.094.268H36.3zM37.292 25.076c-.019.173-.055.345-.11.511a.548.548 0 01-.145.244.328.328 0 01-.206.062v.143a.684.684 0 00.172-.02.391.391 0 00.147-.078.465.465 0 00.126-.161c.042-.088.074-.18.098-.275.035-.135.06-.273.077-.413l.098-.773h.73v1.686h.16v-1.829H37.41l-.119.903zM38.894 26.002h1.162v-.142H39.05v-.724h.986v-.142h-.986v-.678h1.006v-.143h-1.162v1.83zM41.761 24.99H40.6v-.817h-.156v1.83h.156v-.87h1.162v.87h.16v-1.83h-.16v.818zM42.53 25.723v-1.55h-.156v1.83h.153l1.154-1.572v1.571h.157v-1.829h-.16l-1.148 1.55zM44.294 26.002h1.162v-.142H44.45v-.724h.986v-.142h-.986v-.678h1.005v-.143h-1.161v1.83zM46.71 25.723v-1.55h-.156v1.83h.154l1.154-1.572v1.571h.156v-1.829h-.16l-1.148 1.55zM50.427 24.173h-.2l-.886 1.001v-1h-.156v1.828h.156v-.638l.204-.223.756.861h.2l-.854-.957.78-.872zM51.62 24.143a.831.831 0 00-.645.27 1.058 1.058 0 000 1.354.906.906 0 001.287 0 1.051 1.051 0 000-1.355.831.831 0 00-.643-.27zm.524 1.523a.723.723 0 01-1.052 0 .94.94 0 010-1.155.725.725 0 011.053 0 .935.935 0 010 1.155h-.001zM54.211 24.99h-1.16v-.817h-.158v1.83h.157v-.87h1.161v.87h.16v-1.83h-.16v.818zM54.693 24.316h.598v1.686h.16v-1.686h.598v-.143h-1.356v.143zM57.06 24.173h-.685v1.83h.156v-.76h.53a.536.536 0 100-1.07h-.002zm.276.818a.398.398 0 01-.293.109h-.514v-.781h.515a.402.402 0 01.293.11.416.416 0 010 .565v-.003zM58.76 24.143a.831.831 0 00-.645.27 1.057 1.057 0 000 1.354.905.905 0 001.287 0 1.054 1.054 0 000-1.355.83.83 0 00-.643-.27zm.524 1.523a.724.724 0 01-1.053 0 .944.944 0 010-1.155.725.725 0 011.054 0 .935.935 0 010 1.155h-.001zM60.37 25.076c-.02.173-.056.345-.11.511a.548.548 0 01-.146.244.325.325 0 01-.205.062v.143a.685.685 0 00.17-.02.384.384 0 00.148-.078.464.464 0 00.126-.161c.041-.088.074-.18.097-.275a3.05 3.05 0 00.077-.413l.098-.773h.73v1.686h.16v-1.829h-1.027l-.119.903zM62.657 24.938h-.53v-.76h-.157v1.824h.685a.52.52 0 00.553-.534.527.527 0 00-.15-.38.532.532 0 00-.4-.15zm.277.817a.4.4 0 01-.293.11h-.515v-.782h.515a.398.398 0 01.293.11.416.416 0 010 .565v-.003zM65.11 24.285a.657.657 0 01.536.269l.132-.085a.822.822 0 00-.668-.324.905.905 0 00-.662.264 1.007 1.007 0 000 1.368.901.901 0 00.662.264.824.824 0 00.668-.326l-.132-.082a.67.67 0 01-.536.268.724.724 0 01-.545-.227.878.878 0 010-1.155.727.727 0 01.545-.234zM65.965 24.316h.599v1.686h.159v-1.686h.599v-.143h-1.357v.143zM68.332 24.173h-.685v1.83h.157v-.76h.53a.536.536 0 100-1.07h-.002zm.276.818a.392.392 0 01-.294.109h-.513v-.781h.513a.392.392 0 01.294.11.413.413 0 010 .565v-.003zM70.035 24.143a.83.83 0 00-.644.27 1.054 1.054 0 000 1.354.905.905 0 001.286 0 1.051 1.051 0 000-1.355.83.83 0 00-.642-.27zm.525 1.523a.723.723 0 01-1.052 0 .944.944 0 010-1.155.727.727 0 011.053 0 .935.935 0 010 1.155h-.001zM71.469 25.723v-1.55h-.157v1.83h.154l1.154-1.572v1.571h.156v-1.829h-.159l-1.148 1.55zM73.1 24.316h.599v1.686h.16v-1.686h.598v-.143H73.1v.143zM74.781 26.002h1.162v-.142h-1.005v-.724h.986v-.142h-.986v-.678h1.005v-.143h-1.162v1.83zM76.658 25.076c-.019.174-.056.345-.11.511a.538.538 0 01-.146.244.325.325 0 01-.205.062v.143a.672.672 0 00.17-.02.393.393 0 00.149-.078.488.488 0 00.126-.161c.04-.088.074-.18.098-.275a3.05 3.05 0 00.077-.413l.098-.773h.73v1.686h.159v-1.829h-1.026l-.12.903zM78.948 24.938h-.53v-.76h-.156v1.824h.685a.538.538 0 00.404-.154.537.537 0 00-.404-.915l.001.005zm.276.817a.396.396 0 01-.294.11h-.511v-.782h.513a.398.398 0 01.294.11.413.413 0 010 .565l-.002-.003zM80.69 24.285a.657.657 0 01.535.269l.132-.085a.822.822 0 00-.668-.324.906.906 0 00-.662.264 1.007 1.007 0 000 1.368.901.901 0 00.662.264.824.824 0 00.664-.332l-.132-.082a.668.668 0 01-.536.268.725.725 0 01-.545-.227.878.878 0 010-1.155.727.727 0 01.55-.228zM81.544 24.316h.599v1.686h.159v-1.686h.598v-.143h-1.356v.143zM84.161 25.059a.392.392 0 00.224-.14.42.42 0 00.098-.279.442.442 0 00-.137-.34.524.524 0 00-.368-.127h-.753v1.83h.769c.141.008.28-.04.385-.133a.475.475 0 00.14-.36.463.463 0 00-.105-.294.391.391 0 00-.253-.157zm-.782-.743h.577a.356.356 0 01.265.097.332.332 0 01.098.244.327.327 0 01-.22.318.357.357 0 01-.143.021h-.577v-.68zm.87 1.447a.392.392 0 01-.282.098h-.587v-.728h.587a.372.372 0 01.282.106.351.351 0 01.098.256.348.348 0 01-.096.268h-.002zM85.474 24.173l-.75 1.83h.182l.18-.45h.97l.182.45h.18l-.75-1.83h-.194zm-.336 1.238l.432-1.07.434 1.07h-.866zM21.093 13.302H16.46a5.37 5.37 0 00-1.8-3.303 5.384 5.384 0 00-8.852 3.303H2.753a8.4 8.4 0 012.268-4.996 8.421 8.421 0 0110.27-1.53 8.41 8.41 0 013.63 4.116l1.583-.655a10.122 10.122 0 00-4.577-5.064A10.144 10.144 0 003.31 7.66a10.108 10.108 0 00-2.271 7.265h4.778a5.368 5.368 0 003.637 4.262 5.386 5.386 0 005.459-1.285l-1.182-1.178a3.72 3.72 0 01-6.07-1.316 3.706 3.706 0 011.31-4.356 3.72 3.72 0 015.792 2.243h-3.652v1.627h8.397a8.402 8.402 0 01-2.284 4.954 8.424 8.424 0 01-10.22 1.525 8.411 8.411 0 01-3.635-4.07l-1.581.655a10.123 10.123 0 004.41 4.922 10.144 10.144 0 0012.352-1.949 10.11 10.11 0 002.682-7.666l-.139.009zM33.483 11.143c0-2.767-4.317-1.911-4.317-3.29 0-.554.488-.921 1.257-.921a3.017 3.017 0 012.147.844l.745-.967c-.69-.666-1.623-1.033-2.781-1.033-1.624 0-2.704.945-2.704 2.166 0 2.735 4.328 1.767 4.328 3.321 0 .489-.422 1.011-1.49 1.011a3.201 3.201 0 01-2.348-1.023l-.723 1c.656.7 1.647 1.179 3.015 1.179 2.003.001 2.87-1.054 2.87-2.287zM35.986 7.799l2.27 5.499h.556l2.281-5.5v5.5h1.302v-7.41H40.56l-2.025 4.877-2.014-4.878h-1.836v7.41h1.302V7.8zM47.734 5.892h-1.623l-2.916 7.411h1.48l.546-1.423h3.404l.55 1.419h1.479l-2.92-7.407zm-2.147 4.845l1.338-3.539 1.335 3.534-2.672.005zM55.7 13.299h1.503l-1.814-2.914c.89-.144 1.76-.855 1.76-2.178 0-1.367-.956-2.322-2.425-2.322h-3.262v7.412h1.302v-2.765h1.29l1.647 2.767zm-2.933-6.267h1.78c.734 0 1.271.466 1.271 1.177 0 .711-.534 1.178-1.271 1.178h-1.783l.003-2.355zM60.218 13.298h1.302V7.032h2.247V5.887H57.97v1.145h2.248v6.266zM33.16 21.163h-3.783v-2.055h3.706v-1.145h-3.706v-1.922h3.783v-1.145h-5.084v7.412h5.084v-1.145zM35.797 17.019l3.872 5.289h1.257v-7.412h-1.302v5.145l-3.794-5.145h-1.335v7.412h1.302v-5.29zM45.61 19.474h2.213v1.156a2.719 2.719 0 01-1.76.667c-1.467 0-2.559-1.134-2.559-2.69 0-1.554 1.09-2.677 2.559-2.677a2.365 2.365 0 011.928.99l1.068-.602c-.6-.855-1.547-1.544-2.993-1.544-2.152 0-3.894 1.511-3.894 3.834 0 2.322 1.747 3.844 3.894 3.844a4.026 4.026 0 003.06-1.345V18.33H45.61v1.144zM51.785 14.896h-1.302v7.412h1.302v-7.412zM58.493 20.04L54.7 14.898h-1.335v7.41h1.302V17.02l3.872 5.289h1.257v-7.412h-1.302v5.145zM66.46 16.041v-1.145h-5.085v7.412h5.085v-1.145h-3.783v-2.055h3.705v-1.145h-3.705v-1.922h3.783zM67.794 22.308h5.085v-1.145h-3.783v-2.055H72.8v-1.145h-3.705v-1.922h3.783v-1.145h-5.085v7.412zM75.516 19.54h1.29l1.647 2.768h1.502l-1.814-2.91c.89-.145 1.76-.857 1.76-2.179 0-1.367-.957-2.323-2.425-2.323h-3.263v7.412h1.302l.001-2.767zm0-3.499h1.78c.735 0 1.272.467 1.272 1.178 0 .711-.54 1.175-1.272 1.175h-1.78v-2.353zM82.291 16.863c0-.555.49-.921 1.258-.921a3.02 3.02 0 012.147.843l.745-.966c-.684-.667-1.624-1.033-2.782-1.033-1.624 0-2.703.945-2.703 2.166 0 2.735 4.328 1.767 4.328 3.321 0 .489-.422 1.011-1.49 1.011a3.205 3.205 0 01-2.348-1.022l-.724 1c.657.7 1.647 1.178 3.016 1.178 2.003 0 2.87-1.055 2.87-2.289 0-2.765-4.317-1.91-4.317-3.288zM88.621 14.223a1.377 1.377 0 00-1.348 1.642 1.373 1.373 0 001.875 1 1.375 1.375 0 000-2.538 1.37 1.37 0 00-.527-.104zm0 2.552a1.175 1.175 0 01-1.151-1.399 1.171 1.171 0 011.597-.858 1.173 1.173 0 01.728 1.079 1.176 1.176 0 01-1.174 1.178z" fill="#435570"/><path d="M89.244 15.292a.487.487 0 00-.505-.48h-.643v1.575h.214v-.622h.281l.409.622h.266l-.422-.63a.46.46 0 00.4-.465zm-.934.278V15h.429a.294.294 0 01.284.293.292.292 0 01-.284.278h-.429z" fill="#435570"/></svg>