<svg height="512" viewBox="0 0 24 24" width="512" xmlns="http://www.w3.org/2000/svg" fill="#fff"><path d="M19.5 24h-15A2.503 2.503 0 012 21.5v-19C2 1.122 3.122 0 4.5 0h15C20.878 0 22 1.122 22 2.5v19c0 1.378-1.122 2.5-2.5 2.5zM4.5 1C3.673 1 3 1.673 3 2.5v19c0 .827.673 1.5 1.5 1.5h15c.827 0 1.5-.673 1.5-1.5v-19c0-.827-.673-1.5-1.5-1.5z"/><path d="M17.5 8h-11C5.673 8 5 7.327 5 6.5v-2C5 3.673 5.673 3 6.5 3h11c.827 0 1.5.673 1.5 1.5v2c0 .827-.673 1.5-1.5 1.5zm-11-4a.5.5 0 00-.5.5v2a.5.5 0 00.5.5h11a.5.5 0 00.5-.5v-2a.5.5 0 00-.5-.5zM8 14a.5.5 0 01-.5-.5v-3a.5.5 0 011 0v3a.5.5 0 01-.5.5z"/><path d="M9.5 12.5h-3a.5.5 0 010-1h3a.5.5 0 010 1zm8 0h-3a.5.5 0 010-1h3a.5.5 0 010 1zm0 4.5h-3a.5.5 0 010-1h3a.5.5 0 010 1zm0 3h-3a.5.5 0 010-1h3a.5.5 0 010 1zm-11 0a.5.5 0 01-.354-.853l3-3a.5.5 0 01.707.707l-3 3A.498.498 0 016.5 20z"/><path d="M9.5 20a.502.502 0 01-.354-.146l-3-3a.5.5 0 01.707-.707l3 3A.5.5 0 019.5 20z"/></svg>