<svg viewBox="0 0 980 828" fill="none" xmlns="http://www.w3.org/2000/svg"><g filter="url(#filter0_d)"><ellipse cx="489.996" cy="742.482" rx="336.722" ry="2.661" fill="#C4C4C4" fill-opacity=".01"/></g><g opacity=".6" filter="url(#filter1_d)"><rect x="30" y="4" width="920" height="643.29" rx="35" fill="#E5EBF4"/></g><g filter="url(#filter2_d)"><path d="M30 556h920v56.645c0 19.33-15.67 35-35 35H65c-19.33 0-35-15.67-35-35V556z" fill="#F5F7FB"/><path d="M510.182 581.513a3.074 3.074 0 00-1.931-.644c-12.613-.007-25.226 0-37.838-.004a3.254 3.254 0 00-1.077.17c-.996.341-1.78 1.22-1.981 2.24-.081.345-.055.701-.059 1.052-.001 3.46.003 6.92-.002 10.38.014.47-.395.916-.879.921-.002.869-.01 1.739.006 2.608.127-.036.253.03.366.079a.93.93 0 01.509.87v11.289c.018 1.072.684 2.094 1.653 2.579a3.15 3.15 0 001.554.336l19.525-.001c.214.002.438-.017.639.066.127.047.235.131.337.216 3.45 2.834 6.911 5.654 10.358 8.49-.001-2.614-.004-5.229.002-7.844-.013-.495.434-.941.939-.927 1.981 0 3.963-.001 5.944-.003.375.006.752-.055 1.104-.186a3.033 3.033 0 001.894-2.036c.137-.461.101-.946.105-1.419V583.87a2.994 2.994 0 00-1.168-2.357z" fill="#E5EBF4"/><path d="M482.509 589.847c.877-.113 1.779.065 2.567.46 1.009.5 1.841 1.299 2.507 2.194.323.43.608.887.864 1.359a.694.694 0 001.097.183c.107-.105.164-.247.239-.374.562-.994 1.267-1.922 2.158-2.646.721-.585 1.58-1.026 2.507-1.162.863-.13 1.767.01 2.543.412.937.476 1.666 1.318 2.039 2.294.296.754.375 1.584.27 2.386-.15 1.152-.655 2.233-1.318 3.179-.396.57-.865 1.084-1.329 1.599a33.907 33.907 0 01-6.243 5.371c-2.063-1.342-3.957-2.932-5.682-4.682-.47-.485-.93-.98-1.376-1.487-.689-.774-1.299-1.626-1.724-2.572-.437-.961-.685-2.019-.628-3.077a5.23 5.23 0 01.973-2.805c.159-.226.346-.431.536-.632z" fill="#F5F7FB"/><path d="M481.241 590.221c.4-.194.832-.319 1.273-.375-.19.2-.376.406-.536.631a5.226 5.226 0 00-.972 2.806c-.058 1.058.19 2.115.627 3.076.425.946 1.036 1.799 1.724 2.572.446.507.906 1.002 1.376 1.488 1.725 1.749 3.619 3.34 5.682 4.681-.441.289-.888.569-1.348.826-1.119-.633-2.178-1.367-3.196-2.149a34.706 34.706 0 01-4.417-4.074c-.415-.46-.834-.918-1.198-1.421-.669-.919-1.192-1.964-1.39-3.088-.18-1.007-.066-2.079.398-2.998a4.245 4.245 0 011.977-1.975z" fill="#F5F7FB"/><path d="M508.309 579.59H471.05c-.878.046-1.749.299-2.481.783-1.288.826-2.131 2.288-2.158 3.803-.003.473.001.946-.002 1.42-.003.223.048.445.013.668-.041.283.044.562.026.845.008 2.374 0 4.749.003 7.123.003.314-.01.629.021.942a.856.856 0 00.227.34c.194.144.444.173.67.241.472-.005.869-.438.856-.897.005-3.369.001-6.738.002-10.107.004-.342-.021-.688.057-1.024.196-.993.959-1.849 1.93-2.181a3.133 3.133 0 011.048-.166c12.281.004 24.563-.003 36.844.004a2.993 2.993 0 011.881.627 2.918 2.918 0 011.138 2.295v25.196c-.005.461.03.933-.103 1.382a2.957 2.957 0 01-1.844 1.983c-.343.126-.71.186-1.075.18l-5.788.003c-.492-.013-.927.421-.914.903-.006 2.546-.003 5.092-.002 7.638-3.357-2.762-6.727-5.508-10.086-8.267a1.172 1.172 0 00-.328-.211c-.197-.08-.415-.062-.623-.064l-19.013.001a3.053 3.053 0 01-1.512-.327c-.944-.472-1.593-1.467-1.61-2.511v-10.993a.905.905 0 00-.496-.847c-.11-.048-.232-.112-.356-.077-.176.068-.387.052-.54.173-.234.156-.399.423-.381.707-.01 3.367.006 6.734-.009 10.101.003.341-.01.682.012 1.023-.009.362.038.732.189 1.064.212.46.412.926.638 1.379.195.316.45.593.725.845.174.11.303.274.487.369a4.802 4.802 0 002.447.849c6.445.003 12.889-.001 19.334.002.179-.003.259.187.4.262.945.775 1.889 1.551 2.837 2.323.747.614 1.51 1.214 2.24 1.85.699.574 1.403 1.143 2.099 1.719.193.227.438.4.666.591 1.078.884 2.155 1.768 3.234 2.65.39.325 1.038.203 1.313-.21a.853.853 0 00.155-.516c-.002-2.878-.001-5.757-.001-8.635h3.89c.712-.007 1.435.043 2.132-.131 1.489-.333 2.775-1.415 3.345-2.808.223-.515.321-1.072.362-1.629v-26.085c-.04-.711-.204-1.422-.55-2.053a4.797 4.797 0 00-3.161-2.416c-.305-.074-.618-.098-.929-.129z" fill="#E5EBF4"/></g><g opacity=".6" filter="url(#filter3_d)"><path d="M335.085 760.515c-1.632-1.633-1.478-6.504 2.07-9.164h305.681c3.547 2.66 3.843 6.503 2.069 9.164-1.833 2.75-10.938 3.351-15.668 3.252H350.754c-4.73.099-13.008-.591-15.669-3.252z" fill="url(#paint0_linear)"/></g><path d="M385.35 647.289s-9.165 65.925-11.826 73.021c-2.661 7.095-15.668 14.781-18.033 16.555-2.366 1.774-10.643 7.686-14.19 10.347-3.548 2.661-7.927 5.727-6.209 9.164 1.479 2.957 10.939 3.351 15.669 3.252h278.483c4.73.099 14.19-.295 15.668-3.252 1.719-3.437-2.66-6.503-6.208-9.164-3.547-2.661-11.825-8.573-14.19-10.347-2.365-1.774-15.372-9.46-18.033-16.555-2.661-7.096-11.826-73.021-11.826-73.021H385.35z" fill="#EEF1F6"/><path d="M385.35 647.289s-9.165 65.925-11.826 73.021c-2.661 7.095-15.668 14.781-18.033 16.555-2.366 1.774-10.643 7.686-14.19 10.347-3.548 2.661-7.927 5.727-6.209 9.164 1.479 2.957 10.939 3.351 15.669 3.252h278.483c4.73.099 14.19-.295 15.668-3.252 1.719-3.437-2.66-6.503-6.208-9.164-3.547-2.661-11.825-8.573-14.19-10.347-2.365-1.774-15.372-9.46-18.033-16.555-2.661-7.096-11.826-73.021-11.826-73.021H385.35z" fill="url(#paint1_radial)"/><path d="M385.35 647.289s-9.165 65.925-11.826 73.021c-2.661 7.095-15.668 14.781-18.033 16.555-2.366 1.774-10.643 7.686-14.19 10.347-3.548 2.661-7.927 5.727-6.209 9.164 1.479 2.957 10.939 3.351 15.669 3.252h278.483c4.73.099 14.19-.295 15.668-3.252 1.719-3.437-2.66-6.503-6.208-9.164-3.547-2.661-11.825-8.573-14.19-10.347-2.365-1.774-15.372-9.46-18.033-16.555-2.661-7.096-11.826-73.021-11.826-73.021H385.35z" fill="url(#paint2_linear)"/><path d="M385.35 647.289s-9.165 65.925-11.826 73.021c-2.661 7.095-15.668 14.781-18.033 16.555-2.366 1.774-10.643 7.686-14.19 10.347-3.548 2.661-7.927 5.727-6.209 9.164 1.479 2.957 10.939 3.351 15.669 3.252h278.483c4.73.099 14.19-.295 15.668-3.252 1.719-3.437-2.66-6.503-6.208-9.164-3.547-2.661-11.825-8.573-14.19-10.347-2.365-1.774-15.372-9.46-18.033-16.555-2.661-7.096-11.826-73.021-11.826-73.021H385.35z" fill="url(#paint3_linear)"/><path stroke="#DFE5ED" stroke-opacity=".4" stroke-width="2" d="M61.747 38.7h856.509v482.833H61.747z"/><defs><filter id="filter0_d" x="70.693" y="657.241" width="838.604" height="170.481" filterUnits="userSpaceOnUse" color-interpolation-filters="sRGB"><feFlood flood-opacity="0" result="BackgroundImageFix"/><feColorMatrix in="SourceAlpha" values="0 0 0 0 0 0 0 0 0 0 0 0 0 0 0 0 0 0 127 0"/><feOffset/><feGaussianBlur stdDeviation="41.29"/><feColorMatrix values="0 0 0 0 0 0 0 0 0 0 0 0 0 0 0 0 0 0 0.46 0"/><feBlend in2="BackgroundImageFix" result="effect1_dropShadow"/><feBlend in="SourceGraphic" in2="effect1_dropShadow" result="shape"/></filter><filter id="filter1_d" x="24" y="0" width="932" height="655.29" filterUnits="userSpaceOnUse" color-interpolation-filters="sRGB"><feFlood flood-opacity="0" result="BackgroundImageFix"/><feColorMatrix in="SourceAlpha" values="0 0 0 0 0 0 0 0 0 0 0 0 0 0 0 0 0 0 127 0"/><feOffset dy="2"/><feGaussianBlur stdDeviation="3"/><feColorMatrix values="0 0 0 0 0 0 0 0 0 0 0 0 0 0 0 0 0 0 0.12 0"/><feBlend in2="BackgroundImageFix" result="effect1_dropShadow"/><feBlend in="SourceGraphic" in2="effect1_dropShadow" result="shape"/></filter><filter id="filter2_d" x="0" y="530" width="980" height="151.645" filterUnits="userSpaceOnUse" color-interpolation-filters="sRGB"><feFlood flood-opacity="0" result="BackgroundImageFix"/><feColorMatrix in="SourceAlpha" values="0 0 0 0 0 0 0 0 0 0 0 0 0 0 0 0 0 0 127 0"/><feOffset dy="4"/><feGaussianBlur stdDeviation="15"/><feColorMatrix values="0 0 0 0 0 0 0 0 0 0 0 0 0 0 0 0 0 0 0.02 0"/><feBlend in2="BackgroundImageFix" result="effect1_dropShadow"/><feBlend in="SourceGraphic" in2="effect1_dropShadow" result="shape"/></filter><filter id="filter3_d" x="329.086" y="749.351" width="321.88" height="22.426" filterUnits="userSpaceOnUse" color-interpolation-filters="sRGB"><feFlood flood-opacity="0" result="BackgroundImageFix"/><feColorMatrix in="SourceAlpha" values="0 0 0 0 0 0 0 0 0 0 0 0 0 0 0 0 0 0 127 0"/><feOffset dy="3"/><feGaussianBlur stdDeviation="2.5"/><feColorMatrix values="0 0 0 0 0 0 0 0 0 0 0 0 0 0 0 0 0 0 0.38 0"/><feBlend in2="BackgroundImageFix" result="effect1_dropShadow"/><feBlend in="SourceGraphic" in2="effect1_dropShadow" result="shape"/></filter><linearGradient id="paint0_linear" x1="489.995" y1="759.628" x2="489.995" y2="764.654" gradientUnits="userSpaceOnUse"><stop offset=".475" stop-color="#D4D4D4"/><stop offset="1" stop-color="#B4B4B4"/></linearGradient><linearGradient id="paint2_linear" x1="490.002" y1="647.289" x2="490.002" y2="759.642" gradientUnits="userSpaceOnUse"><stop stop-color="#fff" stop-opacity="0"/><stop offset=".541" stop-color="#fff"/><stop offset="1" stop-color="#fff" stop-opacity="0"/></linearGradient><linearGradient id="paint3_linear" x1="490.002" y1="647.289" x2="490.002" y2="725.927" gradientUnits="userSpaceOnUse"><stop stop-color="#EEF1F7"/><stop offset="1" stop-color="#fff" stop-opacity="0"/></linearGradient><radialGradient id="paint1_radial" cx="0" cy="0" r="1" gradientUnits="userSpaceOnUse" gradientTransform="matrix(0 80.4113 -532.905 0 490.002 733.909)"><stop stop-color="#EEF1F6"/><stop offset="1" stop-color="#fff" stop-opacity="0"/></radialGradient></defs></svg>