<svg viewBox="0 0 645 373" fill="none" xmlns="http://www.w3.org/2000/svg"><path d="M179.945 23.475c-15.085 17.425 2.606 45.69-19.779 58.797-21.788 12.757-48.537-8.152-69.07 2.825-30.452 16.293-24.896 90.847 19.64 137.173 13.39 13.928 24.582 19.354 29.527 35.111 10.643 33.83-26.749 53.956-19.638 70.684 16.027 37.675 262.418 69.289 361.297-43.936 46.182-52.885 53.089-129.244 11.82-187.231-74.548-104.8-279.967-112.529-313.796-73.422z" fill="#EFF3F8"/><g filter="url(#filter0_d)"><path d="M372.962 334.488c-5.507-1.827-9.628-6.497-10.782-12.252l-8.021-39.68-68.579 2.431-8.447 41.342c-1.181 5.783 3.544 11.593 8.996 13.735l28.693 11.222a37.224 37.224 0 0016.77 2.431l60.641-5.192a3.761 3.761 0 003.406-3.338c.206-1.785 1.442-3.79-.247-4.354l-22.43-6.345z" fill="#97A6B7"/><path d="M373.655 332.071a16.118 16.118 0 01-10.782-12.101l-8.008-39.186-66.917 2.404-8.433 40.82a11.95 11.95 0 007.389 13.557l28.665 11.084a37.695 37.695 0 0016.757 2.404l60.571-5.123a3.734 3.734 0 003.393-3.297 3.731 3.731 0 00-2.555-3.983l-20.08-6.579z" fill="url(#paint0_linear)"/></g><g filter="url(#filter1_d)"><path d="M145.445 308.926c-7.431.44-13.515-4.381-13.515-10.754V68.357c0-6.373 6.084-11.304 13.515-10.974l10.081 6.771 333.858 8.131c5.467.234 9.876 4.835 9.876 10.26v195.45c0 5.425-4.423 10.095-9.876 10.425l-343.939 20.506z" fill="#97A6B7"/></g><path d="M148.535 308.926c-7.431.44-13.515-4.381-13.515-10.754V68.357c0-6.373 6.084-11.304 13.515-10.974l343.939 14.902c5.467.234 9.876 4.835 9.876 10.26v195.45c0 5.425-4.423 10.095-9.876 10.425l-343.939 20.506z" fill="#fff"/><path opacity=".3" d="M492.474 76.887L148.535 62.74c-3.969-.165-7.211 2.458-7.211 5.865v229.224c0 3.406 3.228 5.975 7.211 5.755l343.939-19.751c2.926-.165 5.288-2.665 5.288-5.577V82.367c.014-2.912-2.362-5.357-5.288-5.48z" fill="#D8DEE8"/><path d="M147.802 284.358c-1.552.082-2.802-.934-2.802-2.266V69.075c0-1.319 1.264-2.349 2.802-2.294l343.939 13.625c1.14.041 2.074 1.003 2.074 2.143v182.648c0 1.14-.934 2.102-2.074 2.157l-343.939 17.004z" fill="url(#paint1_linear)"/><path d="M147.802 284.358c-1.552.082-2.802-.934-2.802-2.266V69.075c0-1.319 1.264-2.349 2.802-2.294l343.939 13.625c1.14.041 2.074 1.003 2.074 2.143v182.648c0 1.14-.934 2.102-2.074 2.157l-343.939 17.004z" fill="url(#paint2_linear)"/><path d="M433.538 270.716l-211.726 10.109V6.385c0-3.668 3.091-6.593 6.758-6.373l198.952 11.66a6.383 6.383 0 016.016 6.374v252.67z" fill="#B7C9E3"/><path opacity=".75" d="M269.73 55.886L240.914 54.8V28.47l28.816 1.387v26.028zm75.612-11.427l-68.881-3.008V30.174l68.881 3.31V44.46zm-19.888 13.557l-48.993-1.868V44.87l48.993 2.074v11.07zm91.681 110.731l-176.221 1.03v-8.31L417.135 161v7.747zm0 11.908l-176.221 1.881v-8.309l176.221-1.319v7.747zm0 11.908l-176.221 2.734v-8.31l176.221-2.17v7.746zm0 11.909l-176.221 3.598v-8.309l176.221-3.036v7.747zM240.914 62.767v90.871l176.221.055V68.92l-176.221-6.153zm109.317 44.57l-7.609 6.84a1.06 1.06 0 00-.343.989l1.799 9.889c.151.81-.632 1.442-1.415 1.277a1.281 1.281 0 01-.796-.123l-9.464-4.78c-.11-.055-.22-.082-.329-.11-.11.014-.22.055-.33.096l-9.546 4.574a1.251 1.251 0 01-.797.096c-.796.151-1.593-.508-1.442-1.318l1.827-9.931c.069-.371-.069-.742-.357-1.016l-7.774-7.197c-.728-.673-.33-1.813.673-1.937l10.727-1.236c.398-.041.742-.275.92-.605l4.766-8.914c.261-.494.824-.673 1.319-.576.508-.083 1.057.137 1.318.631l4.739 9.107c.179.343.508.577.907.632l10.521 1.648c1.002.192 1.401 1.332.686 1.964z" fill="#fff"/><path d="M173.954 178.836a.512.512 0 00-.241-.677l-2.997-1.419 11.319-4.029a.512.512 0 00.048-.941.508.508 0 00-.39-.02l-11.304 4.023 1.414-2.978a.515.515 0 00-.241-.686.515.515 0 00-.686.242l-1.967 4.149a.457.457 0 00.218.61l4.144 1.969a.512.512 0 00.683-.243z" fill="#3A78FF" stroke="#3A78FF" stroke-width="1.4"/><path d="M189.743 173.216a.512.512 0 01-.241-.677l1.425-2.993-11.318 4.028a.512.512 0 01-.652-.309.512.512 0 01.31-.652l11.304-4.023-2.978-1.415a.512.512 0 01-.247-.684.512.512 0 01.684-.246l4.147 1.973a.459.459 0 01.217.611l-1.969 4.144a.525.525 0 01-.29.264.515.515 0 01-.392-.021z" fill="#3A78FF" stroke="#3A78FF" stroke-width="1.4"/><path d="M157.033 184.022c0-.138-.014-.275-.014-.412a38.62 38.62 0 00-.123-1.827 6.402 6.402 0 00-.055-.495 49.06 49.06 0 00-.179-1.497c-.027-.22-.055-.426-.096-.645-.068-.467-.151-.921-.233-1.388-.055-.274-.096-.535-.151-.81-.083-.412-.165-.81-.261-1.222-.096-.412-.193-.811-.289-1.223a7.309 7.309 0 00-.137-.522c-1.909-7.211-5.48-13.9-10.356-19.709 0 .013-.014.027-.014.027-10.755-12.829-27.827-21.482-47.262-22.21C64.033 130.826 36 153.969 36 183.788c0 26.426 22.004 48.389 50.545 53.031.027 0 .055.014.082.014.852.137 1.717.261 2.583.371.096.013.192.027.274.027.838.096 1.676.179 2.528.247.11.014.233.014.343.028.838.069 1.69.124 2.54.151.097 0 .18 0 .276.014.892.027 1.785.055 2.678.055 33.019-.042 59.198-23.213 59.198-51.754.027-.646.014-1.305-.014-1.95z" fill="#1A59E3"/><path d="M39.86 183.527c0 29.832 28.033 53.979 61.862 53.937 33.019-.041 59.198-23.212 59.198-51.753 0-28.542-26.179-52.66-59.198-53.883-33.83-1.263-61.863 21.88-61.863 51.699z" fill="#3A78FF"/><path opacity=".3" d="M86.946 223.963c7.362-15.617-.082-30.341 9.862-40.299 10.026-10.04 22.937-.288 36.713-8.282 5.288-3.063 11.14-9.01 15.466-21.372 7.499 8.928 11.922 19.916 11.922 31.714 0 28.542-26.179 51.713-59.198 51.754a69.174 69.174 0 01-21.894-3.502c3.38-3.365 5.618-6.785 7.129-10.013z" fill="#3A78FF"/><g clip-path="url(#clip0)"><path d="M120.665 164.348c0-5.683-4.65-10.333-10.333-10.333H89.665c-5.683 0-10.333 4.65-10.333 10.333v41.333c0 5.684 4.65 10.334 10.333 10.334h20.667c5.683 0 10.333-4.65 10.333-10.334v-41.333zm-18.083 46.5h-5.167c-1.55 0-2.583-1.033-2.583-2.583 0-1.55 1.033-2.584 2.583-2.584h5.167c1.55 0 2.583 1.034 2.583 2.584s-1.033 2.583-2.583 2.583zm12.917-12.917c0 1.55-1.034 2.584-2.584 2.584H87.082c-1.55 0-2.583-1.034-2.583-2.584v-31c0-1.55 1.033-2.583 2.583-2.583h25.833c1.55 0 2.584 1.033 2.584 2.583v31z" fill="#F5F7FB"/></g><path d="M101.593 72.897a.513.513 0 00.303-.652l-1.143-3.112 10.897 5.058a.51.51 0 00.43-.925l-10.883-5.052 3.096-1.133a.514.514 0 00-.35-.967l-4.311 1.582a.459.459 0 00-.273.588l1.577 4.308a.506.506 0 00.265.29.508.508 0 00.392.015z" fill="#3A78FF" stroke="#3A78FF" stroke-width="1.4"/><path d="M116.796 79.953a.509.509 0 01.303-.653l3.114-1.136-10.897-5.058a.507.507 0 01-.248-.677.51.51 0 01.677-.248l10.884 5.051-1.133-3.096a.51.51 0 01.303-.66.513.513 0 01.661.303l1.575 4.314a.462.462 0 01-.273.588l-4.309 1.577a.511.511 0 01-.657-.305z" fill="#3A78FF" stroke="#3A78FF" stroke-width="1.4"/><path d="M87.382 58.483c0-.096-.013-.192-.013-.288-.028-.426-.055-.865-.097-1.291l-.04-.33c-.042-.357-.083-.728-.138-1.085-.014-.137-.041-.26-.055-.398-.055-.344-.11-.687-.179-1.03-.027-.179-.068-.357-.096-.536a20.442 20.442 0 00-.22-1.016l-.164-.673-.124-.467a41.736 41.736 0 00-.426-1.415c-.013-.041-.027-.069-.04-.11-1.47-4.478-3.874-8.667-7.033-12.389 0 0 0 .014-.014.014-7.788-9.162-20.15-15.52-34.2-16.386C20.163 19.586 0 35.175 0 55.915c0 18.377 15.809 34.118 36.357 37.964.027 0 .055.013.082.013.618.11 1.236.22 1.854.303.069.013.138.027.206.027.605.082 1.209.165 1.813.233.083.014.165.014.248.028.604.069 1.222.123 1.84.165.069 0 .137.014.192.014.646.04 1.291.068 1.937.096 23.871.686 42.853-14.944 42.853-34.915.028-.44.014-.893 0-1.36z" fill="#1A59E3"/><path d="M3.078 55.722c0 20.74 20.15 38.143 44.543 38.843 23.871.687 42.853-14.944 42.853-34.914 0-19.957-18.982-37.305-42.853-38.774C23.227 19.393 3.078 34.969 3.078 55.722z" fill="#3A78FF"/><path opacity=".3" d="M36.964 84.827c5.302-10.727-.055-21.152 7.115-27.896 7.238-6.798 16.578.248 26.536-5.054 3.832-2.033 8.076-6.071 11.208-14.642 5.439 6.387 8.653 14.161 8.653 22.402 0 19.957-18.982 35.602-42.854 34.915a52.432 52.432 0 01-15.795-2.912c2.431-2.253 4.038-4.588 5.137-6.813z" fill="#3A78FF"/><path d="M59.333 42.779H32.667c-3.667 0-6.667 3-6.667 6.666v16.667c0 3.667 3 6.667 6.667 6.667h26.666c3.667 0 6.667-3 6.667-6.667V49.446c0-3.667-3-6.667-6.667-6.667zM62 52.445L48.833 61.28c-.833.5-1.833.833-2.833.833-1 0-2-.333-2.833-.833L30 52.445c-.667-.5-.833-1.5-.333-2.333.5-.666 1.5-.833 2.333-.333l13.167 8.833c.5.334 1.333.334 1.833 0l13.167-8.833c.833-.5 1.833-.334 2.333.5.333.666.167 1.666-.5 2.166z" fill="#F5F7FB"/><path d="M642.777 111.725c0-.11-.014-.22-.014-.329-.014-.33-.028-.66-.041-1.003 0-.096-.014-.192-.014-.289l-.082-1.153v-.069c-.907-10.494-5.288-20.067-12.17-27.896-.013.028-.013.041-.027.069-11.277-12.829-29.434-20.19-50.215-20.204-36.989-.014-68.277 25.08-68.277 57.179 0 13.625 5.658 25.712 14.998 34.9C520.7 163.218 510 170.539 510 170.539c19.517 10.562 34.612-1.594 40.202-6.456 3.379 1.209 6.717 2.994 10.178 4.45.92-2.568 4.258-4.505 6.895-3.502.975.371 1.964.673 2.981.906.522.124 1.043.206 1.565.303.124.027.234.041.303.055.082.013.164.013.274.027 2.088.22 4.189.385 6.277.549 4.629.358 9.271.44 13.914.316a5.164 5.164 0 013.09.921 75.243 75.243 0 0010.659-3.942c.92-.426 1.84-.866 2.733-1.333a74.52 74.52 0 005.233-2.953 68.405 68.405 0 008.296-6.071 63.714 63.714 0 004.203-3.928 51.482 51.482 0 002.87-3.145c.303-.357.605-.714.907-1.085a64.57 64.57 0 002.541-3.338 55.407 55.407 0 003.626-5.878c.426-.811.838-1.621 1.236-2.445.192-.412.385-.824.563-1.236a48.35 48.35 0 001.03-2.514c.165-.426.316-.852.467-1.277.303-.852.577-1.717.824-2.583.509-1.73.907-3.488 1.223-5.274.151-.893.288-1.785.384-2.692.11-.906.179-1.799.234-2.719.055-.907.082-1.827.082-2.734.014-.384 0-.81-.013-1.236z" fill="#1A59E3"/><path d="M513.89 117.892c0 32.099 31.425 55.709 68.414 52.852 35.175-2.719 62.453-28.582 62.453-57.879 0-29.31-27.278-53.072-62.453-53.086-37.002 0-68.414 26.014-68.414 58.113z" fill="#3A78FF"/><path d="M513.89 117.892c0 32.099 31.425 55.709 68.414 52.852 35.175-2.719 62.453-28.582 62.453-57.879 0-29.31-27.278-53.072-62.453-53.086-37.002 0-68.414 26.014-68.414 58.113z" fill="#3A78FF"/><path d="M554.027 164.276s-16.757 19.847-42.071 6.139c0 0 20.383-13.941 21.276-30.368l20.795 24.229z" fill="#3A78FF"/><path opacity=".3" d="M566.263 157.695c8.008-17.018-.082-32.057 10.727-43.169 10.824-11.125 24.641-1.676 39.214-10.768 5.549-3.462 11.675-9.917 16.194-22.897 7.774 8.846 12.361 19.902 12.361 32.003 0 29.311-27.278 55.174-62.453 57.88-8.31.645-16.345-.055-23.83-1.91 3.694-3.804 6.125-7.609 7.787-11.139z" fill="#3A78FF"/><path d="M603.419 114.459c0 4.079 3.049 7.252 6.785 7.087 3.722-.165 6.73-3.571 6.73-7.609s-3.008-7.225-6.73-7.101c-3.736.124-6.785 3.544-6.785 7.623zm-57.493 2.211c0 4.244 3.296 7.54 7.348 7.375 4.024-.178 7.28-3.722 7.28-7.938 0-4.217-3.256-7.5-7.28-7.376-4.052.137-7.348 3.695-7.348 7.939zm29.316-1.126c0 4.162 3.173 7.403 7.06 7.224 3.873-.164 6.991-3.653 6.991-7.774 0-4.12-3.118-7.362-6.991-7.224-3.887.123-7.06 3.612-7.06 7.774z" fill="#F5F7FB"/><path d="M536.333 31.776c0-.071 0-.13-.012-.19-.012-.179-.012-.357-.024-.535 0-.06-.012-.131-.012-.19-.012-.19-.024-.38-.047-.583 0-.035-.012-.083-.012-.119-.535-5.86-3.103-11.27-7.121-15.763 0 .012 0 .012-.012.024-6.55-7.299-16.951-12.196-28.851-12.517C479.403 1.332 462 14.896 462 32.203c0 15.348 13.683 27.853 31.312 30.195h.012c.237.036.475.06.713.083.059.012.131.012.19.024.202.024.416.048.618.06.095.012.202.023.297.023.179.012.369.036.547.048.131.012.25.024.381.024l.499.035c.143.012.297.012.44.024.154.012.309.012.451.024.167.012.333.012.5.012.13 0 .273.012.404.012.202 0 .392 0 .594.012h.321c.309 0 .618 0 .927-.012 5.219-.107 10.141-1.094 14.586-2.77 3.519 2.258 10.354 4.826 18.973-.832 0 0-3.959-2.45-7.061-6.348a30.466 30.466 0 001.973-1.938c.178-.19.357-.38.523-.57.345-.393.678-.785.999-1.177.321-.404.63-.809.927-1.225a28.325 28.325 0 003.007-5.23c.298-.69.571-1.38.809-2.092.154-.476.309-.951.44-1.427.463-1.676.76-3.412.867-5.183.036-.5.048-1.01.048-1.522a2.53 2.53 0 00.036-.677z" fill="#1A59E3"/><path d="M463.707 32.097c0 17.309 17.403 31.003 38.242 30.587 20.185-.404 36.102-13.968 36.102-30.313 0-16.346-15.905-30.028-36.102-30.575-20.851-.57-38.242 12.993-38.242 30.301z" fill="#3A78FF"/><path d="M528.447 52.734c5.979-5.409 9.593-12.565 9.593-20.363 0-16.346-15.906-30.028-36.103-30.575-20.838-.57-38.242 12.993-38.242 30.301 0 17.309 17.404 31.003 38.242 30.587 5.219-.107 10.141-1.094 14.586-2.77 3.519 2.259 10.354 4.827 18.973-.832.012 0-3.947-2.449-7.049-6.348z" fill="#3A78FF"/><path opacity=".3" d="M528.443 52.734c5.979-5.41 9.593-12.565 9.593-20.364 0-6.752-2.687-13.004-7.24-18.08-2.639 7.12-6.193 10.568-9.415 12.374-8.404 4.696-16.309-.808-22.467 5.053-6.11 5.825-1.534 14.253-6.063 23.347-.939 1.878-2.306 3.887-4.386 5.86 4.208 1.236 8.761 1.867 13.468 1.772 5.219-.107 10.14-1.094 14.586-2.77 3.519 2.258 10.354 4.826 18.973-.833.012-.011-3.947-2.46-7.049-6.36z" fill="#3A78FF"/><path d="M514.02 32.288c0 2.246 1.759 4.077 3.911 4.077 2.151 0 3.887-1.807 3.887-4.054 0-2.235-1.736-4.065-3.887-4.077-2.152-.012-3.911 1.795-3.911 4.054zm-32.575-.119c0 2.306 1.843 4.184 4.113 4.184 2.259 0 4.09-1.854 4.09-4.148 0-2.295-1.831-4.173-4.09-4.185-2.27-.023-4.113 1.83-4.113 4.149zm16.486.059c0 2.283 1.795 4.125 4.006 4.125 2.199 0 3.982-1.83 3.982-4.101 0-2.27-1.783-4.113-3.982-4.125-2.199-.012-4.006 1.819-4.006 4.101z" fill="#F5F7FB"/><path d="M408.228 142.782s-1.868-9.779-3.749-12.691c-1.868-2.912-5.371-4.78-5.371-4.78s-.728 1.195 1.593 3.722c2.322 2.527.385 2.775 0 3.585-.384.81.454 3.722 2.116 4.766 1.662 1.044 2.293 6.717 2.293 6.717l3.118-1.319z" fill="#FFA300"/><path d="M497.26 356.142c.179-.962 3.269-1.827 4.794-.536.755.632 1.291 1.923.838 2.514-.165.206.494.59-.138.59-2.074.014-5.672-1.62-5.494-2.568z" fill="url(#paint3_linear)"/><path d="M500.501 356.485l3.186-.454c-1.47-1.772-1.195-7.43-1.195-7.43l-3.379.755s.385 1.552 1.044 3.846c.206.796.302 2.019.344 3.283z" fill="#FFA300"/><path d="M500.208 356.1s3.832-.879 4.244-.123c.412.755.741 2.788-1.69 2.733-2.431-.069-2.76-1.964-2.554-2.61z" fill="url(#paint4_linear)"/><path d="M453.593 359.74c.303-.921 3.489-1.346 4.835.137.66.742 1.003 2.088.481 2.61-.192.192.412.645-.22.563-2.074-.275-5.398-2.39-5.096-3.31z" fill="url(#paint5_linear)"/><path d="M456.754 360.538h3.214c-1.209-1.965-.151-7.527-.151-7.527l-3.462.274s.165 1.594.495 3.942c.124.811.041 2.047-.096 3.311z" fill="#FFA300"/><path d="M448.431 238.995a150.005 150.005 0 00-4.986 22.8c-3.901 28.391 4.395 29.297 2.843 60.764-.495 10.041 8.708 33.212 9.518 33.72.399.041.824.069 1.278.055a13.299 13.299 0 003.241-.536c1.456-.247 6.703-14.477 5.494-22.937-.865-5.989-.618-12.417-.11-25.259.083-2.088 5.412-40.505 5.412-40.505a637.694 637.694 0 005.095 35.684c5.192 30.107 22.073 48.32 22.952 48.608.178.069 1.758.646 3.049-.206.577-.384.769-.865.769-.865.453-.357-.137-30.052-5.274-52.413-7.472-32.442-4.217-40.038-6.579-54.528-2.074-12.54-42.702-4.382-42.702-4.382z" fill="#3F5473"/><path d="M456.534 360.112s3.914-.344 4.216.467c.303.81.344 2.87-2.06 2.458-2.403-.398-2.472-2.321-2.156-2.925z" fill="url(#paint6_linear)"/><path d="M468.176 170.855c-.81-2.912.605-5.604.92-6.181 1.319-2.431 1.649-2.76 2.28-3.186l.879-.536s.055-.013.11-.041c.563-.206 2.473-.261 2.857-.178 1.236.26 2.555 5.301 2.17 12.416.055.275.097.549.151.824a59.87 59.87 0 01.467 3.297 2.76 2.76 0 001.772 2.28c6.566 2.472 6.552.494 7.239 2.637.371 1.167-7.088 3.035-10.755 2.609-8.255.055-14.971-.824-14.243-2.115.316-.577 6.716-2.252 8.516-3.901 1.648-1.51 1.51-3.076 1.648-4.203-.522-.247-3.406-1.579-4.011-3.722z" fill="#FFA300"/><path d="M469.684 158.947c.013 2.198 1.043 4.56 1.579 4.931.069.055.453.357.797.879.041.069.082.151.123.261.481 1.387-1.73 3.022-1.304 3.64.315.453 1.813-.151 1.991.233.165.371-1.085 1.127-.893 1.566.138.33.907.028 1.401.536.248.247.165.453.426 1.222.151.44.343.92.508 1.181.756 1.292 2.926 1.772 3.338 1.25.11-.151.014-.261.137-.755 0 0 .11-.453.426-.962.44-.741 1.525-1.277 2.61-2.06 2.019-1.456 2.554-2.692 2.719-3.104.055-.151.096-.261.124-.343.522-1.621.522-4.011-.206-5.481-1.223-2.458-3.983-1.291-6.25-3.722-2.609-2.815-1.057-6.648-2.472-7.073-1.552-.454-5.054 3.722-5.054 7.801z" fill="#311944"/><path d="M471.695 168.136c.535-.741 1.483-.041 1.497.921 0 .961-.92 1.964-1.827 1.771-.906-.192-.398-1.689.33-2.692z" fill="#311944"/><path d="M472.12 166.529l-1.25 1.634s-1.346 1.992-2.142.907c-.646-.893-.811-.879-.852-.838l-.013.014c-.014 0 .096-.44.192-.838a7.27 7.27 0 00-1.072 2.307c-.274 1.017-.563 2.102.014 3.146.028.055.659 1.167 1.841 1.442 0 0 .467.11 2.417-.234 0 0-2.143-1.552-2.17-1.923-.082-1.002 1.305-1.552 2.335-3.598a7.374 7.374 0 00.7-2.019z" fill="#26264F"/><path d="M491.449 182.696c.975.371 15.891 6.304 18.954 21.866.247 1.264 2.637 14.628-6.428 24.077-10.164 10.59-29.75 10.329-37.524 1.47-1.813-2.06-2.775-4.354-3.31-6.277l2.046-5.439c2.5-3.022 5.906-3.736 7.719-4.175 4.478-1.099 7.857.892 10.425-1.264 1.415-1.195 1.703-2.912 1.951-4.45.851-5.233-2.102-8.461-2.308-11.689-.165-2.417-1.003-7.705 2.143-11.152 2.005-2.184 4.766-2.775 6.332-2.967zm-88.633-41.164c2.006-.344 4.025-.687 6.03-1.044 7.197 13.35 15.631 21.921 21.372 26.907 6.785 5.878 11.166 9.683 18.364 11.592 10.63 2.816 19.819-.494 21.014 2.5.577 1.456-1.442 3.035-4.683 6.922-9.436 11.291-8.544 17.362-13.736 19.037-4.285 1.388-8.598-1.593-15.918-6.812-6.662-4.753-14.999-10.7-22.059-22.059-9.436-15.232-10.384-30.217-10.384-37.043z" fill="#3A78FF"/><path d="M489.526 236.537c-.068 0-.123-.055-.137-.123-.591-5.33.508-9.189 1.483-12.609.234-.824.467-1.621.66-2.404 1.071-4.326 1.538-5.988 2.032-7.76.316-1.154.66-2.335 1.168-4.313.014-.069.096-.124.165-.096.068.014.123.096.096.165-.522 1.991-.852 3.172-1.168 4.326-.494 1.772-.961 3.434-2.032 7.747-.193.783-.426 1.579-.66 2.403-.961 3.379-2.06 7.211-1.469 12.499.013.083-.042.138-.124.151l-.014.014z" fill="#3A78FF"/><path d="M478.603 180.154c-4.958-.151-16.358-1.895-22.649 3.75-.11.096 1.182.783.55 1.525a40.757 40.757 0 00-4.437 6.359c-1.318 2.362-2.527 5.109-3.722 9.216a79.114 79.114 0 00-2.939 16.084c-1.154 15.095-.014 22.058 1.016 26.797 4.492 2.308 16.043 6.428 29.819 4.382 6.291-.934 11.318-3.022 14.861-4.89-3.571-10.823-.769-16.606.55-21.949 1.881-7.609 1.923-7.032 3.475-13.076 2.568-9.971 2.98-20.163 1.222-22.25-4.752-5.604-13.309-5.81-17.746-5.948z" fill="#3A78FF"/><defs><linearGradient id="paint0_linear" x1="337.803" y1="298.038" x2="337.803" y2="336.279" gradientUnits="userSpaceOnUse"><stop offset=".494" stop-color="#EBEFF2"/><stop offset="1" stop-color="#fff"/></linearGradient><linearGradient id="paint1_linear" x1="344.655" y1="74.674" x2="213.931" y2="553.354" gradientUnits="userSpaceOnUse"><stop stop-color="#FFC444"/><stop offset=".996" stop-color="#F36F56"/></linearGradient><linearGradient id="paint2_linear" x1="319.408" y1="66.779" x2="319.408" y2="284.363" gradientUnits="userSpaceOnUse"><stop stop-color="#3ED083"/><stop offset="1" stop-color="#A4EDC6"/></linearGradient><linearGradient id="paint3_linear" x1="495.538" y1="353.378" x2="502.351" y2="357.905" gradientUnits="userSpaceOnUse"><stop stop-color="#444B8C"/><stop offset=".996" stop-color="#26264F"/></linearGradient><linearGradient id="paint4_linear" x1="496.044" y1="352.608" x2="502.857" y2="357.135" gradientUnits="userSpaceOnUse"><stop stop-color="#444B8C"/><stop offset=".996" stop-color="#26264F"/></linearGradient><linearGradient id="paint5_linear" x1="452.275" y1="356.756" x2="458.387" y2="362.193" gradientUnits="userSpaceOnUse"><stop stop-color="#444B8C"/><stop offset=".996" stop-color="#26264F"/></linearGradient><linearGradient id="paint6_linear" x1="452.89" y1="356.067" x2="459.002" y2="361.504" gradientUnits="userSpaceOnUse"><stop stop-color="#444B8C"/><stop offset=".996" stop-color="#26264F"/></linearGradient><filter id="filter0_d" x="262.95" y="271.784" width="147.365" height="101.071" filterUnits="userSpaceOnUse" color-interpolation-filters="sRGB"><feFlood flood-opacity="0" result="BackgroundImageFix"/><feColorMatrix in="SourceAlpha" values="0 0 0 0 0 0 0 0 0 0 0 0 0 0 0 0 0 0 127 0"/><feOffset dy="5"/><feGaussianBlur stdDeviation="7"/><feColorMatrix values="0 0 0 0 0 0 0 0 0 0 0 0 0 0 0 0 0 0 0.14 0"/><feBlend in2="BackgroundImageFix" result="effect1_dropShadow"/><feBlend in="SourceGraphic" in2="effect1_dropShadow" result="shape"/></filter><filter id="filter1_d" x="123.93" y="53.367" width="383.33" height="267.587" filterUnits="userSpaceOnUse" color-interpolation-filters="sRGB"><feFlood flood-opacity="0" result="BackgroundImageFix"/><feColorMatrix in="SourceAlpha" values="0 0 0 0 0 0 0 0 0 0 0 0 0 0 0 0 0 0 127 0"/><feOffset dy="4"/><feGaussianBlur stdDeviation="4"/><feColorMatrix values="0 0 0 0 0 0 0 0 0 0 0 0 0 0 0 0 0 0 0.05 0"/><feBlend in2="BackgroundImageFix" result="effect1_dropShadow"/><feBlend in="SourceGraphic" in2="effect1_dropShadow" result="shape"/></filter><clipPath id="clip0"><path fill="#fff" transform="translate(69 154.015)" d="M0 0h62v62H0z"/></clipPath></defs></svg>